<?xml version="1.0" standalone="no"?>
<!DOCTYPE svg PUBLIC "-//W3C//DTD SVG 20010904//EN"
 "http://www.w3.org/TR/2001/REC-SVG-20010904/DTD/svg10.dtd">
<svg version="1.0" xmlns="http://www.w3.org/2000/svg"
 width="900.000000pt" height="900.000000pt" viewBox="0 0 900.000000 900.000000"
 preserveAspectRatio="xMidYMid meet">
<metadata>
Created by potrace 1.10, written by Peter Selinger 2001-2011
</metadata>
<g transform="translate(0.000000,900.000000) scale(0.100000,-0.100000)"
fill="#000000" stroke="none">
<path d="M2870 8986 c0 -8 -10 -17 -22 -21 -13 -3 -41 -13 -63 -22 -22 -8 -58
-22 -80 -30 -40 -15 -68 -27 -135 -56 -73 -32 -368 -179 -425 -212 -33 -19
-69 -39 -80 -45 -11 -6 -33 -19 -50 -30 -16 -11 -37 -23 -45 -27 -25 -12 -253
-166 -309 -210 -293 -225 -321 -249 -548 -478 -197 -198 -279 -291 -404 -455
-35 -47 -68 -88 -72 -91 -5 -4 -14 -16 -20 -27 -7 -11 -48 -74 -92 -139 -45
-65 -84 -125 -88 -133 -4 -8 -16 -28 -27 -45 -11 -16 -24 -39 -30 -50 -6 -11
-26 -47 -45 -80 -33 -56 -181 -354 -209 -420 -8 -16 -19 -43 -27 -60 -16 -37
-37 -91 -49 -125 -5 -14 -18 -50 -29 -80 -21 -55 -21 -60 -21 -1627 0 -1037 3
-1574 10 -1578 6 -3 10 -16 10 -29 0 -12 7 -31 15 -42 8 -10 15 -27 15 -36 0
-9 7 -30 15 -47 8 -17 22 -45 30 -62 8 -17 15 -35 15 -40 0 -17 130 -288 193
-401 18 -31 45 -81 61 -110 16 -29 46 -79 67 -111 22 -32 39 -60 39 -63 0 -2
21 -34 47 -71 25 -38 68 -99 94 -138 240 -349 636 -752 1036 -1053 67 -51 125
-92 129 -92 3 0 23 -13 43 -28 20 -16 43 -32 51 -35 8 -4 49 -29 90 -56 41
-28 95 -61 120 -74 25 -14 61 -34 80 -45 39 -23 348 -176 395 -196 17 -7 46
-20 65 -28 19 -9 53 -22 75 -31 102 -38 132 -50 163 -63 18 -8 39 -14 46 -14
8 0 27 -7 42 -15 16 -8 37 -15 46 -15 10 0 32 -6 50 -14 18 -7 49 -19 69 -25
49 -15 2617 -16 2668 0 20 6 50 15 66 21 17 5 44 13 60 18 29 8 62 19 138 46
90 33 124 46 150 60 16 8 33 14 38 14 22 0 366 164 474 226 33 19 69 39 80 44
11 6 29 16 40 22 10 7 37 24 60 38 22 13 49 30 60 37 11 7 27 15 35 19 8 4 31
20 51 36 20 15 40 28 44 28 6 0 82 54 114 81 7 7 34 26 60 43 187 127 521 430
711 647 136 156 225 265 276 340 17 26 36 53 43 60 27 32 81 108 81 114 0 4
13 24 28 44 16 20 32 43 35 51 4 8 16 29 27 45 11 17 23 37 27 45 4 8 19 33
33 55 42 67 49 78 75 130 28 55 36 70 53 100 37 67 172 360 172 374 0 5 6 22
14 38 14 27 34 78 61 153 30 84 37 107 45 135 5 17 13 44 19 60 6 17 13 42 16
58 3 15 12 27 20 27 13 0 15 159 15 1305 0 1292 0 1305 -20 1325 -11 11 -20
30 -20 43 -1 12 -7 33 -15 47 -8 14 -14 33 -15 43 0 11 -6 33 -14 50 -8 18
-16 41 -19 52 -3 11 -15 45 -27 75 -12 30 -24 64 -27 75 -3 11 -11 35 -19 52
-8 18 -21 47 -29 65 -56 130 -131 294 -145 318 -5 8 -21 38 -35 65 -14 28 -35
66 -47 85 -11 19 -31 55 -45 80 -13 25 -46 79 -74 120 -27 41 -52 82 -56 90
-3 8 -19 31 -35 51 -15 20 -28 40 -28 43 0 7 -179 243 -260 344 -64 79 -299
330 -371 397 -188 173 -382 334 -519 427 -118 81 -194 132 -212 143 -9 5 -60
36 -113 69 -162 98 -532 286 -564 286 -5 0 -23 7 -40 15 -17 8 -45 22 -62 30
-17 8 -38 15 -47 15 -9 0 -26 7 -36 15 -11 8 -30 15 -42 15 -23 0 -48 22 -37
33 3 4 -705 7 -1575 7 -1367 0 -1582 -2 -1582 -14z m2598 -2445 c20 -11 43
-29 50 -41 18 -29 52 -165 52 -206 0 -19 6 -51 14 -71 19 -54 46 -210 46 -271
0 -28 6 -102 14 -164 8 -62 17 -187 20 -279 4 -91 11 -181 16 -199 6 -19 10
-74 10 -122 0 -56 4 -89 12 -94 11 -7 78 61 78 79 0 4 20 36 46 70 47 65 128
181 204 292 48 70 323 440 343 460 7 7 37 43 67 80 170 210 352 376 460 420 8
4 23 10 32 15 48 26 144 50 197 50 57 0 61 -2 67 -25 20 -81 -22 -149 -227
-366 -69 -74 -145 -156 -169 -184 -24 -27 -46 -52 -49 -55 -4 -3 -69 -75 -146
-160 -76 -85 -153 -169 -170 -186 -90 -93 -171 -180 -250 -269 -49 -55 -93
-105 -99 -111 -6 -6 -24 -28 -41 -48 -16 -20 -42 -51 -56 -69 -52 -64 -120
-170 -125 -196 -5 -21 4 -38 38 -80 23 -30 62 -78 85 -108 78 -101 274 -293
445 -436 57 -47 286 -217 374 -277 36 -25 102 -71 145 -102 44 -32 82 -58 85
-58 3 0 23 -13 44 -30 21 -16 41 -30 45 -30 4 0 24 -13 45 -30 21 -16 41 -30
45 -30 4 0 24 -13 45 -30 21 -16 41 -30 45 -30 4 0 24 -13 44 -28 20 -16 43
-32 51 -35 8 -4 29 -16 45 -27 17 -11 37 -23 45 -27 8 -3 29 -16 45 -28 17
-12 52 -33 80 -45 68 -33 167 -133 183 -187 21 -72 -9 -143 -77 -177 -31 -16
-36 -16 -84 -1 -95 31 -164 64 -217 105 -19 15 -42 30 -50 33 -8 4 -55 36
-105 72 -86 62 -321 224 -370 255 -58 37 -147 99 -222 154 -46 34 -101 75
-124 91 -42 31 -49 36 -190 145 -211 162 -385 327 -490 465 -38 50 -73 95 -77
100 -4 6 -11 19 -15 29 -5 13 -11 16 -18 9 -6 -6 -5 -51 6 -134 8 -68 15 -157
16 -199 0 -41 5 -102 10 -135 4 -33 13 -138 19 -234 5 -95 14 -201 20 -235 5
-33 10 -140 10 -237 0 -155 -2 -182 -20 -222 -18 -40 -25 -46 -58 -52 -39 -6
-84 5 -106 28 -16 16 -52 84 -66 127 -19 54 -39 191 -50 340 -6 74 -15 171
-20 215 -6 44 -10 127 -10 185 0 58 -5 164 -11 235 -5 72 -14 252 -19 400 -4
149 -13 306 -19 350 -20 152 -33 260 -41 337 -4 43 -13 99 -19 125 -9 42 -19
117 -37 278 -2 22 -11 87 -19 145 -26 190 -45 394 -45 478 0 76 3 87 32 132
25 38 67 73 96 79 1 1 19 -8 40 -18z m-2598 -660 c52 -7 124 -18 160 -26 36
-8 79 -16 95 -19 37 -6 110 -24 150 -38 17 -5 46 -14 65 -18 19 -4 60 -18 90
-30 30 -12 67 -25 81 -30 14 -4 34 -12 45 -17 10 -6 35 -17 54 -26 67 -29 185
-89 215 -108 17 -10 37 -22 45 -26 99 -47 387 -308 466 -423 85 -124 113 -169
149 -240 20 -41 41 -83 46 -92 16 -31 60 -173 89 -288 36 -142 37 -482 1 -587
-42 -124 -97 -214 -193 -311 -66 -68 -201 -178 -238 -195 -8 -4 -28 -16 -45
-27 -26 -17 -119 -63 -210 -105 -67 -31 -279 -95 -395 -119 -167 -34 -225 -40
-450 -44 -233 -4 -325 4 -465 39 -22 6 -58 14 -80 19 -38 7 -54 13 -150 47
-97 35 -250 108 -292 139 -17 13 -34 24 -38 24 -3 0 -50 33 -103 74 -138 105
-246 222 -348 376 -63 96 -162 320 -184 420 -4 19 -12 55 -18 80 -56 229 -54
545 4 731 8 26 14 54 14 63 0 8 7 32 16 53 9 21 22 52 28 68 25 60 51 111 78
153 15 24 28 46 28 49 0 11 75 99 140 163 141 139 294 220 515 274 74 18 490
16 635 -3z"/>
<path d="M2259 5616 c-3 -4 -35 -10 -70 -15 -122 -17 -239 -73 -324 -156 -61
-60 -68 -70 -113 -162 -83 -169 -112 -314 -112 -558 0 -169 10 -253 46 -366 7
-26 14 -55 14 -65 0 -11 7 -28 15 -38 8 -11 15 -26 15 -33 0 -11 57 -134 84
-178 80 -135 224 -291 363 -393 137 -100 334 -186 488 -212 237 -40 369 -40
731 -1 49 6 102 15 118 20 15 6 39 11 54 11 15 0 47 6 72 14 197 61 249 79
275 91 17 7 48 22 70 32 123 57 242 165 292 264 69 141 68 135 66 354 -1 151
-5 212 -17 250 -9 28 -16 61 -16 75 0 14 -7 38 -15 54 -8 15 -15 36 -15 46 0
10 -6 31 -14 47 -8 15 -29 60 -48 98 -18 39 -45 86 -60 106 -16 20 -28 42 -28
48 0 24 -228 239 -310 292 -47 31 -92 59 -100 62 -8 4 -28 16 -45 27 -16 11
-37 22 -45 26 -8 3 -22 10 -30 15 -8 5 -22 12 -30 15 -8 3 -30 12 -47 20 -79
35 -107 46 -213 84 -19 6 -51 16 -70 20 -59 15 -123 31 -174 46 -26 8 -65 14
-86 14 -22 0 -51 5 -67 11 -55 21 -637 52 -654 35z"/>
</g>
</svg>
